<svg width="183" height="65" xmlns="http://www.w3.org/2000/svg">

 <g>
  <title>background</title>
  <rect fill="none" id="canvas_background" height="402" width="582" y="-1" x="-1"/>
 </g>
 <g>
  <title>Layer 1</title>
  <path id="svg_1" fill="#81818B" d="m16.5953,25.2361c2.7404,-3.5022 7.1286,-5.7712 12.0745,-5.7712c4.975,0 9.3855,2.2957 12.1226,5.8331c-0.1165,0.1138 -0.2226,0.2318 -0.3187,0.3496c-0.5013,0.6169 -0.8786,1.4114 -1.1807,2.2183c-0.6086,1.6228 -1.0728,3.7426 -1.5026,5.7276l-0.0382,0.1784c-0.4288,1.9814 -0.8274,3.824 -1.3094,5.1919c-0.2165,0.6145 -0.4218,1.049 -0.6039,1.3272c-0.19,-0.2805 -0.4055,-0.7202 -0.6337,-1.3435c-0.5154,-1.4072 -0.949,-3.3212 -1.4085,-5.3648l-0.0149,-0.067l0,0c-0.4417,-1.963 -0.9101,-4.0458 -1.4942,-5.6401c-0.2935,-0.8009 -0.6535,-1.5875 -1.1244,-2.1987c-0.4622,-0.5997 -1.2315,-1.2766 -2.3567,-1.2766c-1.1181,0 -1.8909,0.6695 -2.3598,1.2626c-0.48,0.6072 -0.8543,1.3905 -1.1625,2.1918c-0.6209,1.6135 -1.1285,3.7242 -1.6009,5.7119l-0.0487,0.2053c-0.4678,1.969 -0.9051,3.8099 -1.4015,5.1804c-0.1894,0.5234 -0.3683,0.9216 -0.5301,1.206c-0.1582,-0.2831 -0.3326,-0.6786 -0.5169,-1.1976c-0.4762,-1.3413 -0.8933,-3.1306 -1.3414,-5.0524l-0.0784,-0.3364c-0.4642,-1.9889 -0.9678,-4.1034 -1.5975,-5.7219c-0.3129,-0.8043 -0.6955,-1.5916 -1.1907,-2.2016c-0.1122,-0.1381 -0.2396,-0.2783 -0.3828,-0.4123zm-1.6585,2.6892c0.1305,0.2448 0.2686,0.5483 0.4113,0.9153c0.5451,1.401 1.0068,3.3127 1.4823,5.3499l0.0926,0.397c0.4329,1.8589 0.8832,3.7925 1.4137,5.2864c0.2821,0.7945 0.6228,1.5727 1.061,2.1775c0.4144,0.5721 1.1578,1.3109 2.3009,1.3109c1.1397,0 1.8849,-0.7353 2.3021,-1.3047c0.4419,-0.6034 0.7882,-1.3807 1.076,-2.1758c0.5518,-1.5234 1.0216,-3.5024 1.4712,-5.3963l0,-0.0001l0.0688,-0.2895c0.4844,-2.0385 0.9508,-3.954 1.4919,-5.3601c0.2506,-0.6515 0.4853,-1.1053 0.6895,-1.3868c0.1937,0.2791 0.4149,0.7257 0.6495,1.366c0.5155,1.4072 0.9486,3.3211 1.4083,5.3648l0.0151,0.0669c0.4415,1.9631 0.9099,4.0459 1.494,5.64c0.2935,0.8012 0.6535,1.5878 1.1244,2.1988c0.4623,0.5999 1.2315,1.2768 2.3565,1.2768c1.131,0 1.8975,-0.6831 2.3542,-1.2883c0.4638,-0.6141 0.8126,-1.4033 1.0943,-2.2032c0.5415,-1.5364 0.972,-3.53 1.3825,-5.4264l0,-0.0001l0.0588,-0.2753c0.4421,-2.0412 0.8663,-3.9476 1.3902,-5.3444c0.1134,-0.3038 0.2252,-0.5629 0.3318,-0.7805c0.8027,1.748 1.2479,3.6782 1.2479,5.7072c0,7.89 -6.7315,14.2864 -15.0358,14.2864c-8.3042,0 -15.036,-6.3964 -15.036,-14.2864c0,-2.0751 0.4656,-4.0469 1.303,-5.826zm13.733,-11.3176c-9.965,0 -18.0432,7.6754 -18.0432,17.1436c0,9.4681 8.0782,17.1435 18.0432,17.1435c9.9652,0 18.043,-7.6754 18.043,-17.1435c0,-9.4682 -8.0778,-17.1436 -18.043,-17.1436zm0.3438,10.6021c0,0.0003 -0.0036,0.003 -0.0106,0.0069c0.007,-0.0053 0.0106,-0.0072 0.0106,-0.0069zm-0.4157,0.0019c-0.007,-0.004 -0.0104,-0.0068 -0.0104,-0.0072c0,-0.0003 0.0035,0.0017 0.0104,0.0072zm7.0194,13.3506c0,0 0.0032,-0.0031 0.0097,-0.0071c-0.0065,0.0053 -0.0097,0.0075 -0.0097,0.0071zm0.4372,-0.0115c0.007,0.004 0.0107,0.0066 0.0107,0.0071c0,0.0004 -0.0037,-0.0018 -0.0107,-0.0071zm-14.6641,0.0371c-0.0001,-0.0004 0.0043,-0.0044 0.013,-0.0101c-0.0086,0.0075 -0.013,0.0106 -0.013,0.0101zm0.609,-0.0075c0.0086,0.0058 0.0129,0.0097 0.0129,0.0102c0,0.0004 -0.0044,-0.0022 -0.0129,-0.0102z" clip-rule="evenodd" fill-rule="evenodd"/>
  <path id="svg_2" fill="#81818B" d="m57.6758,42.9007l-4.3754,-14.2206l3.8325,0l2.5951,10.2353l3.0172,-10.2353l4.285,0l3.0177,10.2353l2.625,-10.2353l3.8325,0l-4.4058,14.2206l-4.0131,0l-3.1988,-10.6368l-3.1983,10.6368l-4.0136,0z"/>
  <path id="svg_3" fill="#81818B" d="m83.1287,43.2449c-1.2873,0 -2.3436,-0.1916 -3.1683,-0.5738c-0.8243,-0.4013 -1.438,-0.9269 -1.8407,-1.5768c-0.4021,-0.6499 -0.6032,-1.3666 -0.6032,-2.1501c0,-1.3188 0.5428,-2.3893 1.6291,-3.2112c1.0862,-0.8218 2.7163,-1.2328 4.8888,-1.2328l3.802,0l0,-0.344c0,-0.9749 -0.2919,-1.6916 -0.8752,-2.1503c-0.5832,-0.4588 -1.3077,-0.6881 -2.1724,-0.6881c-0.7849,0 -1.469,0.1815 -2.0522,0.5447c-0.5833,0.3441 -0.9456,0.8601 -1.0863,1.5482l-3.7721,0c0.1008,-1.0321 0.4631,-1.9305 1.0862,-2.695c0.6442,-0.7645 1.469,-1.3475 2.4744,-1.7489c1.0064,-0.4205 2.1325,-0.6307 3.3799,-0.6307c2.1326,0 3.812,0.5064 5.0393,1.5195c1.227,1.013 1.841,2.4466 1.841,4.3006l0,8.7445l-3.2898,0l-0.3617,-2.2935c-0.4426,0.7645 -1.0663,1.395 -1.8706,1.8923c-0.7849,0.4968 -1.8008,0.7454 -3.0482,0.7454zm0.8752,-2.8673c1.1067,0 1.9614,-0.3442 2.5646,-1.0321c0.6237,-0.688 1.0164,-1.5388 1.1776,-2.5517l-3.2896,0c-1.0259,0 -1.7598,0.1816 -2.2029,0.5448c-0.4421,0.3438 -0.6636,0.7743 -0.6636,1.2901c0,0.5544 0.2215,0.9844 0.6636,1.2901c0.4431,0.3057 1.0258,0.4588 1.7503,0.4588z"/>
  <path id="svg_4" fill="#81818B" d="m98.779,42.9007l-5.492,-14.2206l4.043,0l3.802,10.7516l3.802,-10.7516l4.044,0l-5.522,14.2206l-4.677,0z"/>
  <path id="svg_5" fill="#81818B" d="m117.742,43.2449c-1.508,0 -2.846,-0.3061 -4.013,-0.9176c-1.166,-0.6118 -2.082,-1.4719 -2.746,-2.5806c-0.664,-1.1082 -0.995,-2.389 -0.995,-3.8417c0,-1.4717 0.322,-2.781 0.965,-3.9278c0.664,-1.1468 1.569,-2.0356 2.716,-2.6664c1.166,-0.6498 2.534,-0.9747 4.104,-0.9747c1.468,0 2.766,0.3058 3.892,0.9174c1.127,0.6116 2.002,1.4526 2.625,2.523c0.644,1.0512 0.966,2.2267 0.966,3.5265c0,0.2102 -0.01,0.43 -0.03,0.6594c0,0.2294 -0.01,0.4683 -0.03,0.7168l-11.376,0c0.08,1.1085 0.483,1.9783 1.207,2.6092c0.744,0.6304 1.639,0.9459 2.686,0.9459c0.784,0 1.438,-0.1624 1.961,-0.4876c0.542,-0.3437 0.945,-0.7835 1.207,-1.3188l3.922,0c-0.281,0.8985 -0.754,1.7206 -1.418,2.466c-0.644,0.726 -1.448,1.2994 -2.414,1.7201c-0.945,0.4203 -2.022,0.6309 -3.229,0.6309zm0.031,-11.9271c-0.945,0 -1.781,0.258 -2.505,0.7741c-0.724,0.4969 -1.187,1.2615 -1.388,2.2936l7.453,0c-0.06,-0.9366 -0.422,-1.682 -1.086,-2.2363c-0.664,-0.5543 -1.488,-0.8314 -2.474,-0.8314z"/>
  <path id="svg_6" fill="#81818B" d="m127.298,43.9007l0,-20.6429l3.862,0l0,20.6429l-3.862,0z"/>
  <path id="svg_7" fill="#81818B" d="m141.171,44.2449c-1.508,0 -2.846,-0.3061 -4.013,-0.9176c-1.166,-0.6118 -2.081,-1.4719 -2.745,-2.5806c-0.665,-1.1082 -0.996,-2.389 -0.996,-3.8417c0,-1.4717 0.322,-2.781 0.965,-3.9278c0.664,-1.1468 1.569,-2.0356 2.716,-2.6664c1.167,-0.6498 2.535,-0.9747 4.104,-0.9747c1.468,0 2.766,0.3058 3.893,0.9174c1.126,0.6116 2.002,1.4526 2.625,2.523c0.643,1.0512 0.966,2.2267 0.966,3.5265c0,0.2102 -0.011,0.43 -0.031,0.6594c0,0.2294 -0.01,0.4683 -0.03,0.7168l-11.376,0c0.08,1.1085 0.483,1.9783 1.207,2.6092c0.744,0.6304 1.64,0.9459 2.686,0.9459c0.784,0 1.438,-0.1624 1.961,-0.4876c0.543,-0.3437 0.945,-0.7835 1.207,-1.3188l3.923,0c-0.282,0.8985 -0.755,1.7206 -1.418,2.466c-0.645,0.726 -1.449,1.2994 -2.415,1.7201c-0.945,0.4203 -2.021,0.6309 -3.229,0.6309zm0.031,-11.9271c-0.945,0 -1.78,0.258 -2.505,0.7741c-0.724,0.4969 -1.186,1.2615 -1.388,2.2936l7.453,0c-0.06,-0.9366 -0.422,-1.682 -1.086,-2.2363c-0.664,-0.5543 -1.488,-0.8314 -2.474,-0.8314z"/>
  <path stroke="null" transform="rotate(0.4824342727661133 157.03607177734355,36.29050064086616) " id="svg_8" fill="#81818B" d="m157.377843,43.400982c-1.204136,0 -2.262288,-0.191631 -3.173551,-0.574321c-0.913076,-0.401386 -1.642086,-0.948236 -2.18975,-1.641218c-0.546757,-0.692505 -0.874993,-1.494705 -0.984707,-2.406217l3.528988,0c0.109714,0.528345 0.402588,0.984483 0.8759,1.367268c0.492354,0.364567 1.121623,0.546946 1.887809,0.546946c0.766186,0 1.322917,-0.154907 1.669288,-0.465104c0.364505,-0.30972 0.546757,-0.665415 0.546757,-1.06642c0,-0.583574 -0.254791,-0.975612 -0.765279,-1.176114c-0.511395,-0.218626 -1.22227,-0.428285 -2.134439,-0.628882c-0.583027,-0.127627 -1.176027,-0.282534 -1.778095,-0.464913c-0.602068,-0.182283 -1.158799,-0.410257 -1.669288,-0.683634c-0.492354,-0.291787 -0.894035,-0.656354 -1.204136,-1.093986c-0.310101,-0.455756 -0.465152,-1.011859 -0.465152,-1.668212c0,-1.203299 0.474219,-2.215063 1.423564,-3.035576c0.965666,-0.820418 2.315785,-1.23058 4.048544,-1.23058c1.605817,0 2.882491,0.373724 3.830929,1.121172c0.966573,0.747543 1.540532,1.777621 1.723691,3.090328l-3.310467,0c-0.201294,-1.002702 -0.958412,-1.504148 -2.271356,-1.504148c-0.656472,0 -1.16696,0.127627 -1.532372,0.382881c-0.34637,0.255254 -0.519556,0.574321 -0.519556,0.957202c0,0.4011 0.264765,0.720167 0.793388,0.957202c0.52953,0.23694 1.231338,0.455756 2.106331,0.656354c0.948438,0.218721 1.815271,0.464818 2.599591,0.738291c0.802455,0.255254 1.440792,0.647292 1.915918,1.176019c0.473312,0.510413 0.710875,1.248703 0.710875,2.215063c0.018135,0.838923 -0.201294,1.595146 -0.656472,2.26991c-0.456085,0.674382 -1.112556,1.203204 -1.970322,1.586371c-0.856859,0.38269 -1.869675,0.574321 -3.036635,0.574321z"/>
  <path stroke="null" id="svg_9" fill="#81818B" d="m170.502249,43.2449c-1.12667,0 -2.117494,-0.187425 -2.971624,-0.561714c-0.85413,-0.392575 -1.536754,-0.927421 -2.049571,-1.605192c-0.511968,-0.677304 -0.820168,-1.461894 -0.922052,-2.353398l3.304446,0c0.102733,0.516747 0.376123,0.962872 0.820168,1.337255c0.461026,0.356564 1.050257,0.534939 1.767692,0.534939c0.717435,0 1.238743,-0.151507 1.563074,-0.454894c0.341312,-0.302921 0.511968,-0.650809 0.511968,-1.043011c0,-0.570764 -0.238579,-0.954196 -0.717435,-1.150297c-0.478007,-0.213827 -1.143651,-0.418884 -1.99778,-0.615078c-0.546779,-0.124825 -1.102048,-0.276333 -1.665807,-0.454708c-0.56291,-0.178282 -1.084218,-0.401251 -1.562225,-0.668628c-0.461026,-0.285382 -0.837149,-0.641946 -1.127519,-1.069972c-0.29037,-0.445752 -0.435555,-0.989647 -0.435555,-1.631593c0,-1.176886 0.444046,-2.16644 1.332137,-2.968942c0.905072,-0.802409 2.169285,-1.203567 3.791792,-1.203567c1.502793,0 2.698234,0.36552 3.586325,1.096561c0.905072,0.731134 1.44336,1.7386 1.614865,3.022492l-3.100677,0c-0.187637,-0.980691 -0.896581,-1.47113 -2.125985,-1.47113c-0.615551,0 -1.093558,0.124825 -1.43487,0.374476c-0.324332,0.249651 -0.486497,0.561714 -0.486497,0.936191c0,0.392295 0.247069,0.704359 0.742906,0.936191c0.494988,0.231739 1.152141,0.445752 1.972309,0.641946c0.888091,0.21392 1.699769,0.454615 2.434184,0.722084c0.751396,0.249651 1.349117,0.633083 1.793163,1.150204c0.444046,0.499208 0.666493,1.221293 0.666493,2.16644c0.016981,0.820508 -0.188486,1.560131 -0.615551,2.220083c-0.427065,0.659578 -1.041766,1.176792 -1.844105,1.551548c-0.803187,0.37429 -1.750711,0.561714 -2.844269,0.561714z"/>
 </g>
</svg>